<svg width="150" height="100" viewBox="0 0 150 100" fill="none" xmlns="http://www.w3.org/2000/svg">
<path d="M37.3711 24.6245H65.6209L61.246 41.3743C60.5777 43.7088 59.3275 45.5841 57.4963 46.9994C55.6625 48.4183 53.5373 49.1255 51.1216 49.1255H37.9962C34.9961 49.1255 32.3491 49.9996 30.0588 51.7504C27.765 53.5003 26.1625 55.8745 25.246 58.8755C24.6624 61.1252 24.5997 63.2504 25.0588 65.2502C25.5162 67.25 26.3285 69.022 27.4957 70.5618C28.662 72.1051 30.1621 73.3342 31.9968 74.2506C33.828 75.1689 35.8287 75.6244 37.9962 75.6244H45.9954C47.4964 75.6244 48.7245 76.2301 49.6834 77.4371C50.6405 78.6467 50.9124 79.9993 50.4957 81.4994L45.4966 100H36.7469C30.7466 100 25.2248 98.6871 20.1834 96.0622C15.141 93.4373 10.9534 89.9595 7.62124 85.6243C4.28735 81.2928 2.0156 76.3555 0.808656 70.8134C-0.400057 65.2714 -0.253493 59.5836 1.24658 53.7493L1.74631 51.8749C2.80273 47.93 4.51375 44.1904 6.80807 40.8119C9.10012 37.4374 11.808 34.5626 14.9336 32.1876C18.0582 29.8126 21.5378 27.9584 25.3714 26.6252C29.2032 25.2929 33.2029 24.6245 37.3711 24.6245ZM51.6205 99.9991L76.245 7.75112C76.9108 5.41846 78.161 3.54403 79.9957 2.12606C81.8268 0.708982 83.9511 0 86.3703 0H112.496C118.495 0 124.014 1.3129 129.058 3.93781C134.098 6.56272 138.286 10.0432 141.62 14.3748C144.952 18.709 147.245 23.6463 148.495 29.1875C149.745 34.7304 149.577 40.4181 147.994 46.2498L147.495 48.1251C146.411 52.1247 144.745 55.8127 142.496 59.1881C140.244 62.5626 137.557 65.4594 134.433 67.8751C131.307 70.2925 127.827 72.1678 123.995 73.4993C120.161 74.8342 116.161 75.4999 111.995 75.4999H89.3705L93.8698 58.6248C94.5364 56.3751 95.7858 54.543 97.6205 53.1242C99.4525 51.7089 101.577 50.9999 103.995 50.9999H111.246C114.245 50.9999 116.932 50.0834 119.307 48.2496C121.683 46.4176 123.244 44.0425 123.995 41.1245C124.578 39.0426 124.639 36.9995 124.183 34.9997C123.724 32.9999 122.912 31.2296 121.744 29.6872C120.577 28.1465 119.077 26.8972 117.245 25.9374C115.411 24.9804 113.411 24.5 111.246 24.5H97.2443L78.9944 92.3751C78.3261 94.6248 77.0759 96.4586 75.2438 97.8748C73.4109 99.2928 71.3263 100 68.9936 100L51.6205 99.9991Z" fill="#FF6C2C"/>
</svg>
