<?xml version="1.0" encoding="utf-8"?>
<!-- Generator: Adobe Illustrator 24.0.0, SVG Export Plug-In . SVG Version: 6.00 Build 0)  -->
<svg version="1.1" id="Layer_1" xmlns="http://www.w3.org/2000/svg" xmlns:xlink="http://www.w3.org/1999/xlink" viewBox="0 0 64 64" width="64px" height="64px" style="enable-background:new 0 0 612 792;" xml:space="preserve">
<style type="text/css">
	.st0{fill:#8F45EB;}
</style>
<g>
	<path class="st0" d="M39.84,38.98c0.73-0.87,1.29-1.92,1.67-3.1c0.38-1.21,0.87-5.28-0.02-7.97c-0.39-1.19-0.96-2.22-1.7-3.08 c-0.73-0.85-1.65-1.52-2.72-1.99C36,22.36,34.73,22,33.31,22H26v20h7.31c1.44,0,2.72-0.48,3.81-0.97 C38.2,40.53,39.12,39.85,39.84,38.98z M38.61,18.16c1.75,0.73,3.24,1.78,4.45,3.12c1.2,1.32,2.12,2.91,2.74,4.72 c0.61,1.78,0.91,3.88,0.91,6c0,2.09-0.29,3.93-0.88,5.71c-0.61,1.81-1.51,3.4-2.69,4.74c-1.19,1.35-2.69,2.43-4.45,3.19 C36.94,46.41,34.9,47,32.63,47H24.2c-1.77,0-3.2-1.43-3.2-3.2V20.2c0-1.77,1.43-3.2,3.2-3.2h8.43C34.86,17,36.88,17.43,38.61,18.16z M32,64C14.33,64,0,49.67,0,32S14.33,0,32,0s32,14.33,32,32S49.67,64,32,64z M32,59c14.91,0,27-12.09,27-27S46.91,5,32,5 S5,17.09,5,32S17.09,59,32,59z"/>
</g>
</svg>