<svg width="105" height="100" viewBox="0 0 105 100" fill="none" xmlns="http://www.w3.org/2000/svg">
<path d="M102.626 45.546L56.9545 1.88601C54.3267 -0.628669 50.0612 -0.628669 47.4301 1.88601L37.947 10.9535L49.976 22.4542C52.7724 21.5515 55.9777 22.1568 58.2058 24.2874C60.4454 26.4313 61.0739 29.522 60.1061 32.2046L71.6999 43.2892C74.5048 42.3651 77.741 42.9621 79.9807 45.1073C83.112 48.1002 83.112 52.9498 79.9807 55.9435C76.849 58.9382 71.7766 58.9382 68.6431 55.9435C66.2886 53.6907 65.7062 50.3832 66.8988 47.6097L56.0862 37.272L56.0853 64.4754C56.8487 64.8367 57.5692 65.319 58.2053 65.9245C61.3357 68.9171 61.3357 73.7659 58.2053 76.7634C55.074 79.7559 49.9993 79.7559 46.8713 76.7634C43.7405 73.7661 43.7405 68.9173 46.8713 65.9245C47.6451 65.1861 48.5403 64.6272 49.4956 64.2525V36.7963C48.5399 36.4233 47.6457 35.8685 46.8708 35.1242C44.4993 32.8586 43.9282 29.5309 45.1444 26.7467L33.2861 15.4075L1.97326 45.3443C-0.657753 47.8609 -0.657753 51.9391 1.97326 54.4539L47.6416 98.114C50.2709 100.629 54.5349 100.629 57.1679 98.114L102.625 54.6602C105.255 52.1443 105.255 48.0649 102.625 45.5497" fill="#F05133"/>
</svg>
