<svg width="100" height="62" viewBox="0 0 100 62" fill="none" xmlns="http://www.w3.org/2000/svg">
<path d="M45.0868 34.4065L43.2523 42.1113C41.214 50.9983 34.3246 57.8878 25.723 60.4561C18.1812 62.6982 7.62277 61.9645 1.52588e-05 60.0892L3.50593 44.639H9.49855C10.0693 49.4494 19.364 49.8163 21.8098 44.0275C22.8697 41.4591 23.522 38.7687 24.1335 35.9558L24.4597 34.4066H20.3831L24.8673 14.8796H12.4337L15.858 0H48.8382L40.9295 34.4058L45.0868 34.4065ZM59.5989 34.2437H55.8484L63.6755 0.0821114H84.1401L76.2314 34.2437H80.0226L77.332 45.3728H99.9575L96.4516 60.7823H53.4443L59.5989 34.2437Z" fill="#111111"/>
</svg>
