<svg width="101" height="100" viewBox="0 0 101 100" fill="none" xmlns="http://www.w3.org/2000/svg">
<path d="M10.8116 20.2843L11.2723 18.7863C11.0144 18.7863 13.3016 15.2722 13.0448 15.2722C-3.69561 31.4725 -2.24389 53.1643 5.8061 68.7584C11.42 79.6346 21.6955 89.8165 33.9155 95.3047C39.5757 97.8433 48.243 100.177 57.3402 99.9894C76.7977 99.5838 90.4385 90.3863 98.1369 75.3941L98.5899 74.2224C91.7965 81.0698 80.7251 85.8251 72.0424 86.7146C35.9139 90.4161 -1.25294 58.053 10.8116 20.2843Z" fill="#24489B"/>
<path d="M58.7687 25.8133C63.5394 33.4885 72.6509 40.2345 86.877 37.2054C90.4693 36.4405 98.6053 30.3184 100.018 27.0776C87.8228 35.3779 80.2556 32.5979 76.672 31.5441C75.8828 31.3181 74.0563 30.498 72.3544 29.4751C68.5758 27.2033 66.7085 26.1639 63.7654 21.8859C62.1494 19.5358 60.5324 15.8024 60.0022 13.6639C59.127 10.1267 59.3695 4.68471 61.0328 0C55.5126 4.92611 54.6616 14.4444 56.5112 20.7384C56.746 21.5343 58.0577 24.6658 58.7687 25.8133Z" fill="#24489B"/>
<path d="M62.673 66.4138C81.7712 68.9678 96.0139 60.941 100.932 48.4565C95.3106 54.4209 85.8155 58.6692 76.7272 58.6063C56.4032 58.4741 33.5639 40.2643 36.1256 14.8809C36.3438 12.695 37.2179 9.26692 39.5603 4.82361C32.822 13.32 28.7314 20.324 29.8789 32.0589C31.4475 48.182 46.6822 64.2754 62.673 66.4138Z" fill="#24489B"/>
</svg>
