<svg width="28" height="26" viewBox="0 0 28 26" fill="none" xmlns="http://www.w3.org/2000/svg">
<path d="M16.3699 6.2506C16.6878 6.2506 16.9455 5.99322 16.9455 5.67572C16.9455 5.35822 16.6878 5.10083 16.3699 5.10083C16.0519 5.10083 15.7942 5.35822 15.7942 5.67572C15.7942 5.99322 16.0519 6.2506 16.3699 6.2506Z" fill="#FF7E20"/>
<path d="M27.3285 6.95086C27.2552 4.5259 26.2085 2.70718 24.3769 1.54696C22.6185 0.418097 20.3367 0 17.1339 0H4.50067L0 25.4099C0 25.4099 3.90407 16.7553 11.1889 10.8915L10.8958 10.6302C11.1156 10.0971 11.3773 9.57442 11.6599 9.06225C10.0689 8.32013 8.19541 8.33058 8.19541 8.33058C8.19541 8.33058 12.2879 6.91951 12.8949 7.00313C15.1557 3.74197 18.1073 3.51202 18.1073 3.51202C18.1073 3.51202 18.7039 6.03105 15.5325 9.35492C15.7209 9.89846 14.9359 14.1213 14.9359 14.1213C14.9359 14.1213 14.5487 12.1458 13.7532 10.9124C12.7903 11.6754 12.3297 11.9054 12.3297 11.9054L11.8483 11.4768C10.1317 13.1805 7.71394 18.0932 11.1679 25.4099H21.8963L18.9133 17.696C20.9124 17.4242 27.5692 14.4662 27.3285 6.95086Z" fill="#FF7E20"/>
</svg>
