<svg width="168" height="100" viewBox="0 0 168 100" fill="none" xmlns="http://www.w3.org/2000/svg">
<path d="M167.828 17.1649C167.828 17.1649 157.38 32.8366 139.47 29.8515C121.559 26.8664 118.574 0.000732422 86.4847 0.000732422C46.9325 0.000732422 42.4548 33.5828 42.4548 33.5828C42.4548 33.5828 53.6489 17.1649 70.8131 20.15C87.9773 23.1351 94.6937 50.0007 129.768 50.0007C164.843 50.0007 167.828 17.1649 167.828 17.1649Z" fill="url(#paint0_linear_1450_24)"/>
<path d="M126.037 67.1649C126.037 67.1649 115.589 82.8366 97.6788 79.8515C79.7683 76.8664 76.7832 50.0007 44.6937 50.0007C5.14141 50.0007 0.663803 83.5828 0.663803 83.5828C0.663803 83.5828 11.8578 67.1649 29.022 70.15C45.4399 73.1351 52.9026 100.001 87.9773 100.001C123.052 100.001 126.037 67.1649 126.037 67.1649Z" fill="url(#paint1_linear_1450_24)"/>
<defs>
<linearGradient id="paint0_linear_1450_24" x1="42.1041" y1="25.0007" x2="167.761" y2="25.0007" gradientUnits="userSpaceOnUse">
<stop stop-color="#45A9B3"/>
<stop offset="0.389" stop-color="#3FAEB0"/>
<stop offset="1" stop-color="#2CBBAB"/>
</linearGradient>
<linearGradient id="paint1_linear_1450_24" x1="0.0817134" y1="75.0007" x2="125.731" y2="75.0007" gradientUnits="userSpaceOnUse">
<stop stop-color="#45A9B3"/>
<stop offset="0.389" stop-color="#3FAEB0"/>
<stop offset="1" stop-color="#2CBBAB"/>
</linearGradient>
</defs>
</svg>
