<svg width="100" height="114" viewBox="0 0 100 114" fill="none" xmlns="http://www.w3.org/2000/svg">
<path d="M50 0L100 28.2817V84.8579L50 113.14L0 84.8579V28.2817L50 0Z" fill="white"/>
<path d="M91.0723 82.907L51.6537 105.207V87.8424L76.2144 74.3282L91.0723 82.907ZM93.7726 80.4651V33.8372L79.354 42.1705V72.1447L93.7726 80.4651ZM8.77255 82.907L48.1912 105.207V87.8424L23.6175 74.3282L8.77255 82.907ZM6.0723 80.4651V33.8372L20.4909 42.1705V72.1447L6.0723 80.4651ZM7.7648 30.814L48.1912 7.94574V24.7287L22.2868 38.9793L22.08 39.0956L7.7648 30.814ZM92.0801 30.814L51.6537 7.94574V24.7287L77.5581 38.9664L77.7648 39.0827L92.0801 30.814Z" fill="#8ED6FB"/>
<path d="M48.1912 83.8889L23.9535 70.5556V44.1603L48.1912 58.1525V83.8889ZM51.6537 83.8889L75.8915 70.5685V44.1603L51.6537 58.1525V83.8889ZM25.5943 41.1112L49.9225 27.7391L74.2506 41.1112L49.9225 55.1551L25.5943 41.1112Z" fill="#1C78C0"/>
</svg>
