<svg width="100" height="100" viewBox="0 0 100 100" fill="none" xmlns="http://www.w3.org/2000/svg">
<path d="M62.5011 50.0236C62.5014 53.6288 61.8505 57.2044 60.5797 60.5782C57.2048 61.849 53.6282 62.5005 50.022 62.5012H49.978C46.3718 62.5016 42.7951 61.8507 39.4203 60.5797C38.1474 57.2053 37.4953 53.6285 37.4957 50.022V49.9749C37.4957 46.2592 38.1775 42.7007 39.4124 39.4171C42.7878 38.1444 46.3658 37.4934 49.9733 37.4957H50.0141C53.7313 37.4957 57.2883 38.1775 60.5719 39.4171C61.8441 42.7916 62.4951 46.3685 62.4933 49.9749V50.022H62.498L62.5011 50.0236ZM99.3056 41.6654H70.121L90.7557 21.0291C87.5109 16.4721 83.5272 12.4895 78.9694 9.24588L58.3315 29.8822V0.695994C55.5873 0.234385 52.8094 0.00158616 50.0267 0H49.9733C47.1422 0 44.3692 0.241948 41.6669 0.695994V29.8822L21.0243 9.2443C18.751 10.8623 16.6173 12.6681 14.6457 14.6426L14.6363 14.652C12.6648 16.625 10.8607 18.7586 9.24273 21.0306L29.8853 41.6654H0.694401C0.694401 41.6654 0 47.1485 0 49.9827V50.0173C0 52.8515 0.240366 55.6292 0.695983 58.3331H29.8868L9.24114 78.9662C12.4883 83.5226 16.4722 87.506 21.0291 90.7525L41.6685 70.1178V99.3056C44.3676 99.7581 47.1359 99.9969 49.9639 100H50.0345C52.8141 99.9974 55.5886 99.7652 58.3299 99.3056V70.1178L78.9709 90.7573C81.2445 89.1378 83.3797 87.3321 85.3543 85.359H85.359C87.3296 83.3839 89.1331 81.2488 90.751 78.9756L70.1163 58.3346H99.3071C99.7596 55.6324 99.9984 52.8641 99.9984 50.0361V49.9639C99.9984 47.183 99.7659 44.4101 99.3071 41.6685L99.3056 41.6654Z" fill="#FF4A00"/>
</svg>
